<svg width="109" height="109" xmlns="http://www.w3.org/2000/svg" xmlns:xlink="http://www.w3.org/1999/xlink" overflow="hidden"><defs><clipPath id="clip0"><path d="M749 187 858 187 858 296 749 296Z" fill-rule="evenodd" clip-rule="evenodd"/></clipPath><clipPath id="clip1"><path d="M750 188 857 188 857 295 750 295Z" fill-rule="evenodd" clip-rule="evenodd"/></clipPath><clipPath id="clip2"><path d="M750 188 857 188 857 295 750 295Z" fill-rule="evenodd" clip-rule="evenodd"/></clipPath><clipPath id="clip3"><path d="M750 188 857 188 857 295 750 295Z" fill-rule="evenodd" clip-rule="evenodd"/></clipPath></defs><g clip-path="url(#clip0)" transform="translate(-749 -187)"><g clip-path="url(#clip1)"><g clip-path="url(#clip2)"><g clip-path="url(#clip3)"><path d="M831.922 212.521 827.575 216.868C841.396 230.689 841.396 253.203 827.575 267.024L831.922 271.371C848.195 255.209 848.195 228.794 831.922 212.521Z"/><path d="M823.117 221.215 818.77 225.561C827.798 234.59 827.798 249.191 818.77 258.33L823.117 262.677C834.597 251.197 834.597 232.695 823.117 221.215Z"/><path d="M814.534 230.131 810.188 234.478C814.423 238.714 814.423 245.512 810.188 249.748L814.534 254.095C821.222 247.407 821.222 236.707 814.534 230.131Z"/><path d="M753.901 226.565 753.901 256.435 775.524 256.435 803.5 279.396 803.5 203.604 775.524 226.565Z"/></g></g></g></g></svg>